<svg width="64px" height="64px" xmlns="http://www.w3.org/2000/svg" viewBox="184.25625 -36.39999999999999 131.4875 222.79999999999998" style="background: none;" preserveAspectRatio="xMidYMid"><defs><linearGradient id="editing-glowing-gradient" x1="0" x2="1" y1="0.5" y2="0.5"><stop offset="0" stop-color="#000000"></stop><stop offset="1" stop-color="#000000"></stop></linearGradient><filter id="editing-glowing" x="-100%" y="-100%" width="300%" height="300%"><feGaussianBlur in="SourceGraphic" result="blur" stdDeviation="1"></feGaussianBlur><feMerge><feMergeNode in="blur"></feMergeNode><feMergeNode in="SourceGraphic"></feMergeNode></feMerge></filter></defs><g filter="url(#editing-glowing)"><g transform="translate(212.59795141220093, 121.72000032663345)"><path d="M11.26-53.50L11.26-53.50L11.26-53.50Q15.62-59.65 22.21-63.74L22.21-63.74L22.21-63.74Q28.80-67.84 36.86-67.84L36.86-67.84L36.86-67.84Q44.93-67.84 48.77-65.28L48.77-65.28L73.86-67.84L65.15-18.69L65.15-18.69Q60.67 6.40 51.20 16.26L51.20 16.26L51.20 16.26Q42.11 25.60 24.45 25.60L24.45 25.60L24.45 25.60Q11.01 25.60 3.33 21.38L3.33 21.38L3.33 21.38Q-4.35 17.15-4.35 10.11L-4.35 10.11L-4.35 10.11Q-4.35 4.86-0.38 1.86L-0.38 1.86L-0.38 1.86Q3.58-1.15 9.73-1.15L9.73-1.15L9.73-1.15Q15.10-1.15 19.20 1.28L19.20 1.28L19.20 1.28Q21.63 2.56 22.78 4.35L22.78 4.35L22.78 4.35Q19.84 6.91 19.84 11.14L19.84 11.14L19.84 11.14Q19.84 16.64 24.96 16.64L24.96 16.64L24.96 16.64Q33.54 16.64 38.40-3.58L38.40-3.58L38.40-3.58Q39.81-9.09 40.96-14.59L40.96-14.59L40.96-14.59Q35.20-7.55 22.14-7.55L22.14-7.55L22.14-7.55Q13.06-7.55 7.81-11.90L7.81-11.90L7.81-11.90Q2.56-16.26 2.56-26.50L2.56-26.50L2.56-26.50Q2.56-32.90 4.74-40.13L4.74-40.13L4.74-40.13Q6.91-47.36 11.26-53.50ZM27.90-26.11L27.90-26.11L27.90-26.11Q27.90-17.41 32.38-17.41L32.38-17.41L32.38-17.41Q35.46-17.41 38.40-20.74L38.40-20.74L38.40-20.74Q40.70-23.42 41.60-27.39L41.60-27.39L48.13-60.29L48.13-60.29Q47.49-60.42 46.85-60.67L46.85-60.67L46.85-60.67Q45.57-61.18 43.90-61.18L43.90-61.18L43.90-61.18Q36.10-61.18 31.49-48.38L31.49-48.38L31.49-48.38Q27.90-38.40 27.90-26.11Z" fill="url(#editing-glowing-gradient)"></path></g></g><style>text {
  font-size: 64px;
  font-family: Arial Black;
  dominant-baseline: central;
  text-anchor: middle;
}</style></svg>